<?xml version="1.0" encoding="UTF-8"?>
<svg width="26px" height="24px" viewBox="0 0 26 24" version="1.1" xmlns="http://www.w3.org/2000/svg" xmlns:xlink="http://www.w3.org/1999/xlink">
    <!-- Generator: Sketch 55 (78076) - https://sketchapp.com -->
    <title>redMine</title>
    <desc>Created with Sketch.</desc>
    <defs>
        <path d="M8.18856084,1.98844944 C9.64193894,1.28040555 11.274577,0.883146074 13,0.883146074 C14.725423,0.883146074 16.3580611,1.28040555 17.8114392,1.98844944 L18.586524,0.530726918 C18.845806,0.0430884275 19.4513046,-0.142031097 19.9389431,0.117250888 C20.4265816,0.376532872 20.6117011,0.982031553 20.3524192,1.46967004 L19.5247396,3.02630882 C21.9873773,4.84353816 23.6650013,7.66330214 23.955157,10.8831461 L25,10.8831461 C25.5522847,10.8831461 26,11.3308613 26,11.8831461 C26,12.4354308 25.5522847,12.8831461 25,12.8831461 L23.955157,12.8831461 C23.7087812,15.6171671 22.4620434,18.0627313 20.5837732,19.8510093 L21.3524192,21.2966221 C21.6117011,21.7842606 21.4265816,22.3897593 20.9389431,22.6490413 C20.4513046,22.9083232 19.845806,22.7232037 19.586524,22.2355652 L18.9888388,21.111483 C17.2655592,22.2321194 15.2088073,22.8831461 13,22.8831461 C11.274577,22.8831461 9.64193894,22.4858866 8.18856084,21.7778427 L7.41347603,23.2355652 C7.15419405,23.7232037 6.54869536,23.9083232 6.06105687,23.6490413 C5.57341838,23.3897593 5.38829886,22.7842606 5.64758084,22.2966221 L6.47526037,20.7399833 C4.0126227,18.922754 2.33499869,16.10299 2.04484302,12.8831461 L1,12.8831461 C0.44771525,12.8831461 0,12.4354308 0,11.8831461 C0,11.3308613 0.44771525,10.8831461 1,10.8831461 L2.04484302,10.8831461 C2.33499869,7.66330214 4.0126227,4.84353816 6.47526037,3.02630882 L5.64758084,1.46967004 C5.38829886,0.982031553 5.57341838,0.376532872 6.06105687,0.117250888 C6.54869536,-0.142031097 7.15419405,0.0430884275 7.41347603,0.530726918 L8.18856084,1.98844944 Z" id="path-1"></path>
        <filter x="-21.2%" y="-23.1%" width="150.0%" height="154.7%" filterUnits="objectBoundingBox" id="filter-2">
            <feOffset dx="1" dy="1" in="SourceAlpha" result="shadowOffsetOuter1"></feOffset>
            <feGaussianBlur stdDeviation="2" in="shadowOffsetOuter1" result="shadowBlurOuter1"></feGaussianBlur>
            <feColorMatrix values="0 0 0 0 0   0 0 0 0 0   0 0 0 0 0  0 0 0 0.5 0" type="matrix" in="shadowBlurOuter1"></feColorMatrix>
        </filter>
    </defs>
    <g id="redMine" stroke="none" stroke-width="1" fill="none" fill-rule="evenodd">
        <g id="Mine" fill-rule="nonzero">
            <use fill="black" fill-opacity="1" filter="url(#filter-2)" xlink:href="#path-1"></use>
            <use fill="#F76C6C" xlink:href="#path-1"></use>
        </g>
        <g id="Shadows" transform="translate(-0.761981, -0.895975)">
            <path d="M1.5,12.4810568 C1.77614237,12.4810568 2,12.3334388 2,12.1513427 C2,11.9692467 1.83620284,12.0230501 1.56006046,12.0230501 C1.28391809,12.0230501 1,11.9692467 1,12.1513427 C1,12.3334388 1.22385763,12.4810568 1.5,12.4810568 Z" id="Oval-Light-center-left-shadow" fill="#DFA0A0" transform="translate(1.500000, 12.248342) rotate(151.000000) translate(-1.500000, -12.248342) "></path>
            <path d="M1.85162478,13.4710736 C2.25414632,13.4710736 2.58045451,13.3234556 2.58045451,13.1413595 C2.58045451,12.9592635 2.34169402,13.0130669 1.93917248,13.0130669 C1.53665093,13.0130669 1.12279504,12.9592635 1.12279504,13.1413595 C1.12279504,13.3234556 1.44910323,13.4710736 1.85162478,13.4710736 Z" id="Dark-center-left-shadow" fill="#C44444" opacity="0.5" transform="translate(1.851625, 13.238359) scale(1, -1) rotate(179.000000) translate(-1.851625, -13.238359) "></path>
            <path d="M26.2099878,13.4426086 C26.5129965,13.4426086 26.7586335,13.2949906 26.7586335,13.1128945 C26.7586335,12.9307985 26.5789003,12.9846019 26.2758916,12.9846019 C25.972883,12.9846019 25.6613421,12.9307985 25.6613421,13.1128945 C25.6613421,13.2949906 25.9069792,13.4426086 26.2099878,13.4426086 Z" id="Dark-center-right-shadow" fill="#C44444" opacity="0.5" transform="translate(26.209988, 13.209894) scale(1, -1) rotate(219.000000) translate(-26.209988, -13.209894) "></path>
            <path d="M21.2137878,23.5158582 C21.5304512,23.5158582 21.7871576,23.3682402 21.7871576,23.1861441 C21.7871576,23.0040481 21.5993249,23.0578515 21.2826615,23.0578515 C20.9659981,23.0578515 20.6404179,23.0040481 20.6404179,23.1861441 C20.6404179,23.3682402 20.8971243,23.5158582 21.2137878,23.5158582 Z" id="Dark-down-right-shadow" fill="#C44444" opacity="0.5" transform="translate(21.213788, 23.283143) scale(1, -1) rotate(179.000000) translate(-21.213788, -23.283143) "></path>
            <path d="M7.05263579,24.2703229 C7.45515734,24.2703229 7.78146552,24.1227049 7.78146552,23.9406089 C7.78146552,23.7585128 7.54270504,23.8123162 7.14018349,23.8123162 C6.73766194,23.8123162 6.32380605,23.7585128 6.32380605,23.9406089 C6.32380605,24.1227049 6.65011424,24.2703229 7.05263579,24.2703229 Z" id="Dark-down-left-shadow" fill="#C44444" opacity="0.5" transform="translate(7.052636, 24.037608) scale(1, -1) rotate(153.000000) translate(-7.052636, -24.037608) "></path>
            <path d="M6.75777946,1.81825555 C7.03392184,1.81825555 7.25777946,1.67063755 7.25777946,1.4885415 C7.25777946,1.30644546 7.0939823,1.36024886 6.81783992,1.36024886 C6.54169755,1.36024886 6.25777946,1.30644546 6.25777946,1.4885415 C6.25777946,1.67063755 6.48163709,1.81825555 6.75777946,1.81825555 Z" id="Light-up-left-shadow" fill="#DFA0A0" transform="translate(6.757779, 1.585541) rotate(123.000000) translate(-6.757779, -1.585541) "></path>
            <path d="M20.1830974,1.56242893 C20.4592398,1.56242893 20.6830974,1.41481092 20.6830974,1.23271488 C20.6830974,1.05061884 20.5193002,1.10442224 20.2431579,1.10442224 C19.9670155,1.10442224 19.6830974,1.05061884 19.6830974,1.23271488 C19.6830974,1.41481092 19.906955,1.56242893 20.1830974,1.56242893 Z" id="Light-up-right-shadow" fill="#DFA0A0" transform="translate(20.183097, 1.329714) rotate(167.000000) translate(-20.183097, -1.329714) "></path>
            <path d="M6.62689999,12.9716861 C7.73146949,12.9716861 6.23616886,10.6958236 6.23616886,8.00661915 C6.23616886,5.31741468 7.73146949,3.2332152 6.62689999,3.2332152 C5.52233049,3.2332152 4.62689999,5.41324616 4.62689999,8.10245063 C4.62689999,10.7916551 5.52233049,12.9716861 6.62689999,12.9716861 Z" id="Light-Big-Shadow" fill="#DFA0A0" transform="translate(5.830258, 8.102451) rotate(31.000000) translate(-5.830258, -8.102451) "></path>
            <path d="M25.1170398,20.649571 C25.7197722,20.649571 22.1003871,19.2377697 19.8838931,16.7941624 C18.0384325,14.7596066 17.5695125,11.7654018 17.5695125,10.5436203 C17.5695125,7.85441585 19.0648132,5.77021638 17.9602437,5.77021638 C16.8556742,5.77021638 15.9602437,7.95024733 15.9602437,10.6394518 C15.9602437,11.9009107 17.2888768,15.671721 19.2842448,17.7377841 C21.5426439,20.0761974 24.5306046,20.649571 25.1170398,20.649571 Z" id="Dark-Big-Shadow" fill="#C44444" opacity="0.503194754" transform="translate(20.572012, 13.209894) scale(-1, -1) rotate(31.000000) translate(-20.572012, -13.209894) "></path>
        </g>
    </g>
</svg>